<svg width="82" height="24" viewBox="0 0 82 24" fill="none" xmlns="http://www.w3.org/2000/svg">
<path d="M0 20.9135V2.23848C0 1.63848 0.21 1.11348 0.63 0.693477C1.05 0.273477 1.575 0.0634796 2.175 0.0634796H4.29V17.0285H14.475V20.9135H0Z" fill="white"/>
<path d="M53.415 20.9135V2.23848C53.415 1.63848 53.625 1.11348 54.045 0.69348C54.465 0.27348 54.99 0.0634827 55.59 0.0634827H63.225C65.37 0.0634827 67.005 0.513482 68.13 1.39848C69.255 2.37348 69.825 3.67848 69.825 5.34348C69.825 6.39348 69.6 7.27848 69.165 8.01348C68.715 8.70348 68.1 9.24348 67.29 9.64848C68.34 10.0985 69.15 10.7135 69.72 11.5235C70.245 12.2885 70.515 13.3085 70.515 14.5535C70.515 16.5785 69.87 18.1535 68.58 19.2785C67.245 20.3735 65.37 20.9135 62.94 20.9135H53.415ZM57.54 8.11848H62.445C63.495 8.11848 64.26 7.93848 64.755 7.57848C65.235 7.21848 65.475 6.64848 65.475 5.88348C65.475 5.11848 65.235 4.54848 64.755 4.18848C64.35 3.85848 63.57 3.70848 62.385 3.70848H57.54V8.11848ZM57.54 17.1485H62.625C63.75 17.1485 64.62 16.9235 65.235 16.4885C65.805 16.0835 66.09 15.3935 66.09 14.4335C66.09 13.4585 65.805 12.7535 65.235 12.3185C64.71 11.9135 63.825 11.7185 62.565 11.7185H57.54V17.1485Z" fill="white"/>
<path d="M72.9 13.0985C72.9 11.5235 73.125 10.2035 73.59 9.12348C74.055 8.05848 74.685 7.18848 75.495 6.54348C76.26 5.94348 77.16 5.49348 78.195 5.20848C79.23 4.92348 80.28 4.78848 81.375 4.78848C81.45 4.78848 81.555 4.78848 81.675 4.78848C81.795 4.78848 81.9 4.78848 81.975 4.78848V9.09348H80.595C79.425 9.09348 78.555 9.37848 77.985 9.94848C77.415 10.5185 77.13 11.4035 77.13 12.6185V20.9285H72.9V13.0985Z" fill="white"/>
<path d="M21.9884 11.6734C22.4855 11.6734 22.8884 11.2705 22.8884 10.7734C22.8884 10.2764 22.4855 9.87342 21.9884 9.87342C21.4914 9.87342 21.0884 10.2764 21.0884 10.7734C21.0884 11.2705 21.4914 11.6734 21.9884 11.6734Z" fill="#FBB040"/>
<path d="M25.0484 11.6734C25.5455 11.6734 25.9484 11.2705 25.9484 10.7734C25.9484 10.2764 25.5455 9.87341 25.0484 9.87341C24.5514 9.87341 24.1484 10.2764 24.1484 10.7734C24.1484 11.2705 24.5514 11.6734 25.0484 11.6734Z" fill="#8DC63F"/>
<path d="M28.0934 11.6734C28.5905 11.6734 28.9934 11.2705 28.9934 10.7734C28.9934 10.2764 28.5905 9.87341 28.0934 9.87341C27.5964 9.87341 27.1934 10.2764 27.1934 10.7734C27.1934 11.2705 27.5964 11.6734 28.0934 11.6734Z" fill="#FFDE17"/>
<path d="M35.7134 2.38841C35.7584 2.37341 35.8034 2.3434 35.8334 2.3284C35.8034 2.3584 35.7584 2.38841 35.7134 2.43341C35.6684 2.47841 35.6084 2.5084 35.5484 2.5534C36.1634 2.1784 36.8834 1.75841 37.6034 1.41341C38.3234 1.05341 39.0584 0.768406 39.6434 0.558406C40.0784 0.468406 40.4684 0.378404 40.4984 0.303404C40.5134 0.273404 40.4384 0.243404 40.3034 0.228404C40.1684 0.228404 39.9734 0.243407 39.7334 0.273407C39.6284 0.288407 39.5084 0.303404 39.4484 0.303404C38.7884 0.348404 37.9784 0.513406 37.1234 0.858406C37.2884 0.798406 37.4684 0.753405 37.6334 0.693405C37.5134 0.738405 37.3934 0.783404 37.2584 0.828404C37.1384 0.873404 37.0034 0.933405 36.8834 0.993405C36.9134 0.993405 36.9584 0.993404 36.9884 0.978404C36.7784 1.0534 36.5534 1.1584 36.3284 1.2784C36.2234 1.3384 36.1034 1.39841 35.9984 1.47341C35.8934 1.53341 35.7884 1.60841 35.6834 1.68341C35.5784 1.75841 35.4884 1.83341 35.3984 1.90841C35.3084 1.98341 35.2184 2.05841 35.1434 2.13341C34.9784 2.28341 34.8584 2.4334 34.7534 2.5534C34.7084 2.6134 34.6634 2.6734 34.6484 2.71841C34.6184 2.76341 34.6034 2.80841 34.6034 2.83841C34.5884 2.89841 34.6184 2.9284 34.6784 2.9284C34.7384 2.9284 34.8284 2.88341 34.9484 2.82341C35.0084 2.79341 35.0834 2.7484 35.1584 2.7034C35.2334 2.6584 35.3084 2.5984 35.4134 2.5534L35.7134 2.38841Z" fill="url(#paint0_linear_4518_115154)"/>
<path d="M37.2434 1.90841C36.7934 2.10341 36.3584 2.29842 35.9384 2.53842L35.8484 2.56841L35.9384 2.64341V2.62841C36.2384 2.29841 36.8534 1.86342 37.4684 1.54842C37.5434 1.50342 37.6184 1.47341 37.6784 1.42841C37.7834 1.36841 37.8434 1.32341 37.8584 1.29341C37.8884 1.21841 37.6784 1.26341 37.3784 1.38341L37.0334 1.54842C36.6134 1.72842 36.1034 2.02841 35.6684 2.35841C35.4584 2.52341 35.2634 2.68841 35.1134 2.85341C35.0384 2.92841 34.9634 3.01841 34.9184 3.07841C34.8584 3.15341 34.8284 3.21342 34.7984 3.27342C34.7384 3.37842 34.8584 3.34842 34.9034 3.36342C34.9184 3.39342 34.9934 3.37841 35.1134 3.30341C35.2334 3.22841 35.3834 3.12342 35.5484 2.97342C35.7284 2.83842 35.8784 2.70342 35.9834 2.59842C36.1034 2.49342 36.1634 2.40342 36.1634 2.37342C36.2234 2.32842 36.2984 2.29841 36.3584 2.25341C36.3134 2.29841 36.2684 2.32842 36.2234 2.37342C36.2534 2.31342 36.3584 2.22341 36.4784 2.13341C36.5384 2.08841 36.6134 2.02841 36.6734 1.98341C36.7484 1.93841 36.8084 1.89342 36.8684 1.84842L37.0634 1.72841C37.1234 1.68341 37.1984 1.65342 37.2584 1.62342C37.1534 1.60842 37.0484 1.59341 36.9584 1.59341L36.7634 1.72841C36.7784 1.72841 36.8234 1.71342 36.8234 1.71342C36.4484 1.96842 36.1034 2.25341 35.7284 2.56841C35.5784 2.71841 35.4284 2.85341 35.2784 3.00341C35.1734 3.13841 35.2184 3.15342 35.3684 3.06342C35.4434 3.01842 35.5184 2.95842 35.5934 2.91342C35.5634 2.92842 35.5184 2.95842 35.4884 2.97342C35.9984 2.59842 36.5534 2.25342 37.1084 1.99842C37.1984 1.95342 37.3034 1.89342 37.3334 1.86342C37.3934 1.86342 37.3484 1.86341 37.2434 1.90841Z" fill="url(#paint1_linear_4518_115154)"/>
<path d="M35.4434 3.15341C35.3534 3.21341 35.2784 3.25841 35.1734 3.36341C35.1584 3.39341 35.1434 3.40841 35.1434 3.40841C35.1884 3.37841 35.2484 3.33341 35.3084 3.30341C35.4134 3.21341 35.4584 3.15341 35.4434 3.15341Z" fill="url(#paint2_linear_4518_115154)"/>
<path d="M35.1284 3.40841C35.0834 3.43841 35.0534 3.45341 35.0534 3.45341C35.0684 3.43841 35.0834 3.43841 35.0984 3.42341C35.1284 3.40841 35.1284 3.40841 35.1284 3.40841Z" fill="url(#paint3_linear_4518_115154)"/>
<path d="M37.2434 3.67841C37.2734 3.57341 37.3034 3.48341 37.3334 3.37841C37.2884 3.48341 37.2584 3.58841 37.2284 3.67841H37.2434Z" fill="url(#paint4_linear_4518_115154)"/>
<path d="M38.1434 2.22341C38.0684 2.22341 38.0084 2.23912 38.0084 2.23912C38.0534 2.23912 38.0984 2.23911 38.1434 2.22341Z" fill="url(#paint5_linear_4518_115154)"/>
<path d="M36.1784 2.92842C36.1484 2.94342 36.1184 2.94342 36.0884 2.95842C36.1484 2.94342 36.1784 2.92842 36.1784 2.92842Z" fill="url(#paint6_linear_4518_115154)"/>
<path d="M40.2884 1.06841C39.8084 1.11341 39.2984 1.23341 38.8484 1.33841C38.9834 1.30841 39.1034 1.30841 39.2234 1.29341C39.3434 1.29341 39.4484 1.27841 39.5534 1.29341C39.7184 1.24841 39.9134 1.20341 40.0934 1.17341C40.2134 1.15841 40.3484 1.12841 40.4684 1.11341C40.5884 1.09841 40.7234 1.08341 40.8434 1.06841C41.0834 1.05341 41.3384 1.03841 41.5784 1.03841C41.5184 1.00841 41.6384 1.00841 41.6834 1.00841C41.7434 1.00841 41.8034 1.00841 41.8634 1.00841C41.3384 0.993412 40.8284 1.00841 40.2884 1.06841Z" fill="url(#paint7_linear_4518_115154)"/>
<path d="M35.6834 3.25842C35.6684 3.27342 35.6384 3.28842 35.6234 3.30342C35.6534 3.30342 35.6684 3.28842 35.6834 3.25842Z" fill="url(#paint8_linear_4518_115154)"/>
<path d="M35.6984 3.15341C35.6984 3.10841 35.7134 3.07841 35.7134 3.07841C35.6684 3.16841 35.6684 3.16841 35.6684 3.16841C35.6684 3.16841 35.6834 3.15341 35.6984 3.15341Z" fill="url(#paint9_linear_4518_115154)"/>
<path d="M40.8284 1.23341C40.8434 1.23341 40.8584 1.23341 40.8734 1.23341C41.0534 1.26341 41.2334 1.29341 41.2334 1.29341C40.9934 1.23341 40.9934 1.23341 40.9934 1.23341C40.9334 1.23341 40.8734 1.21841 40.8284 1.23341Z" fill="url(#paint10_linear_4518_115154)"/>
<path d="M27.4034 0.633414C27.4634 0.648414 27.5234 0.678413 27.5834 0.693413C27.5234 0.693413 27.4484 0.678415 27.3734 0.648415C27.2834 0.633415 27.1934 0.618416 27.1034 0.588416C27.3434 0.648416 27.5834 0.723415 27.8384 0.798415C28.0784 0.873415 28.3334 0.963412 28.5884 1.05341C29.0984 1.23341 29.6084 1.45841 30.0884 1.69841C30.5684 1.93841 31.0334 2.20841 31.4534 2.49341C31.8734 2.77841 32.2484 3.06341 32.5784 3.31841C32.7884 3.52841 32.9984 3.73842 33.1484 3.88842C33.2234 3.96342 33.2984 4.02341 33.3584 4.06841C33.4184 4.11341 33.4484 4.14341 33.4784 4.14341C33.5684 4.14341 33.3434 3.73842 32.9084 3.28842C32.8184 3.18342 32.7134 3.06342 32.6384 2.98842C32.3534 2.64342 32.0084 2.28342 31.5884 1.93842C31.4834 1.84842 31.3784 1.75841 31.2584 1.68341C31.1384 1.59341 31.0334 1.51841 30.9134 1.42841C30.7934 1.35341 30.6734 1.26342 30.5384 1.18842C30.4184 1.11342 30.2834 1.03842 30.1484 0.963416C30.2534 1.02342 30.3584 1.08341 30.4484 1.15841C30.5534 1.23341 30.6434 1.29341 30.7484 1.36841C30.5984 1.27841 30.4484 1.17341 30.2984 1.08341C30.1334 0.993414 29.9834 0.903412 29.8034 0.828412C29.8334 0.858412 29.8784 0.888413 29.9084 0.918413C29.3834 0.618413 28.6934 0.348414 28.0334 0.183414C27.3734 0.018414 26.7434 -0.0115878 26.3234 0.00341219C25.9034 0.0334122 25.7684 0.108414 25.8734 0.183414C25.9934 0.273414 26.3534 0.348414 26.9084 0.483414C27.0734 0.543414 27.2384 0.573414 27.4034 0.633414Z" fill="url(#paint11_linear_4518_115154)"/>
<path d="M29.2934 1.65341C28.7084 1.33841 28.1084 1.09841 27.4784 0.903409L27.3584 0.858411L27.3734 0.978409H27.3884C28.0034 1.00841 28.9784 1.27841 29.8184 1.68341C29.9234 1.72841 30.0134 1.77341 30.1184 1.81841C30.2684 1.87841 30.3584 1.92341 30.4034 1.92341C30.4484 1.92341 30.4184 1.87841 30.3284 1.80341C30.2834 1.77341 30.2234 1.71341 30.1484 1.66841C30.0734 1.62341 29.9834 1.57841 29.8934 1.51841C29.7434 1.42841 29.5934 1.36841 29.4434 1.29341C28.8884 1.00841 28.1234 0.738409 27.4034 0.603409C26.6834 0.468409 26.0234 0.46841 25.6784 0.54341C25.5284 0.58841 25.6634 0.63341 25.6934 0.69341C25.6634 0.72341 25.7684 0.753412 25.9484 0.798412C26.0384 0.813412 26.1434 0.843411 26.2784 0.858411C26.3984 0.873411 26.5334 0.90341 26.6834 0.91841C27.2684 1.00841 27.7784 1.08341 27.8384 1.02341C27.9284 1.05341 28.0334 1.08341 28.1384 1.12841C28.0634 1.11341 27.9734 1.09841 27.8984 1.08341C27.9884 1.08341 28.1684 1.09841 28.3784 1.15841C28.5884 1.20341 28.8134 1.27841 29.0084 1.33841C29.2034 1.39841 29.3984 1.48841 29.5784 1.56341L29.3234 1.26341C29.2184 1.23341 29.1134 1.18841 29.0084 1.15841C29.0234 1.17341 29.0684 1.20341 29.0684 1.20341C28.4684 1.02341 27.9134 0.888412 27.2384 0.798412L26.8184 0.753409L26.3984 0.723412C26.2784 0.723412 26.2334 0.73841 26.2334 0.76841C26.2334 0.78341 26.3084 0.81341 26.4284 0.84341L26.7884 0.91841C26.7284 0.90341 26.6834 0.888412 26.6234 0.873412C27.4634 1.00841 28.3184 1.27841 29.0684 1.63841C29.1884 1.69841 29.3384 1.75841 29.3984 1.77341C29.4584 1.75841 29.4134 1.72841 29.2934 1.65341Z" fill="url(#paint12_linear_4518_115154)"/>
<path d="M26.4284 0.90341C26.2934 0.87341 26.1584 0.858411 25.9634 0.843411C25.9184 0.843411 25.8884 0.843411 25.8734 0.843411C25.9484 0.858411 26.0384 0.873414 26.1434 0.888414C26.3384 0.918414 26.4434 0.93341 26.4284 0.90341Z" fill="url(#paint13_linear_4518_115154)"/>
<path d="M25.8884 0.844111C25.8284 0.828411 25.7834 0.82841 25.7834 0.82841C25.8134 0.82841 25.8284 0.844111 25.8584 0.844111C25.8734 0.844111 25.8734 0.843411 25.8734 0.843411C25.8734 0.843411 25.8734 0.844111 25.8884 0.844111Z" fill="url(#paint14_linear_4518_115154)"/>
<path d="M19.1234 18.7384C18.0734 17.9134 17.1734 16.8634 16.5284 15.6934C15.8684 14.5234 15.4484 13.2184 15.2984 11.8834C15.2834 11.7934 15.2684 11.7184 15.2534 11.7184C15.2384 11.7184 15.2384 11.7784 15.2534 11.8684C15.4034 13.2034 15.8234 14.5084 16.4684 15.6784C17.1284 16.8484 18.0134 17.8984 19.0634 18.7384C19.1384 18.7984 19.1984 18.8284 19.2134 18.8284C19.2284 18.8284 19.1834 18.7834 19.1234 18.7384Z" fill="#1C75BC"/>
<path d="M20.8784 2.67341C20.8334 2.70341 20.8334 2.71841 20.8934 2.68841C20.9384 2.67341 21.0284 2.62841 21.0734 2.59841C21.1184 2.56841 21.1034 2.55341 21.0584 2.58341C20.9984 2.59841 20.9084 2.64341 20.8784 2.67341Z" fill="url(#paint15_linear_4518_115154)"/>
<path d="M38.1584 11.6734C38.6555 11.6734 39.0584 11.2705 39.0584 10.7734C39.0584 10.2764 38.6555 9.87342 38.1584 9.87342C37.6614 9.87342 37.2584 10.2764 37.2584 10.7734C37.2584 11.2705 37.6614 11.6734 38.1584 11.6734Z" fill="#1C75BC"/>
<path d="M41.2034 11.6734C41.7005 11.6734 42.1034 11.2705 42.1034 10.7734C42.1034 10.2764 41.7005 9.87341 41.2034 9.87341C40.7064 9.87341 40.3034 10.2764 40.3034 10.7734C40.3034 11.2705 40.7064 11.6734 41.2034 11.6734Z" fill="#EE2A7B"/>
<path d="M44.2484 11.6734C44.7455 11.6734 45.1484 11.2705 45.1484 10.7734C45.1484 10.2764 44.7455 9.87341 44.2484 9.87341C43.7514 9.87341 43.3484 10.2764 43.3484 10.7734C43.3484 11.2705 43.7514 11.6734 44.2484 11.6734Z" fill="#92278F"/>
<path d="M27.3584 1.3534C27.3134 1.3234 27.2834 1.32341 27.2384 1.30841C27.3584 1.35341 27.3584 1.3534 27.3584 1.3534Z" fill="url(#paint16_linear_4518_115154)"/>
<path d="M27.6134 2.67342L27.6434 2.68842C27.7034 2.67342 27.7634 2.64341 27.8234 2.62841L28.0034 2.58342L27.6134 2.67342Z" fill="url(#paint17_linear_4518_115154)"/>
<path d="M29.6684 2.53842C29.7284 2.58342 29.7584 2.62842 29.8034 2.65842C29.7584 2.62842 29.7284 2.58341 29.7134 2.56841C29.6834 2.55341 29.6684 2.53842 29.6684 2.53842Z" fill="url(#paint18_linear_4518_115154)"/>
<path d="M31.2284 2.89841C31.4984 3.15341 31.6784 3.39341 31.8434 3.60341C31.9334 3.67841 32.0234 3.76841 32.1134 3.85841C32.2034 3.94841 32.2934 4.03841 32.3834 4.12841C32.8484 4.63841 33.2384 5.17841 33.5684 5.74841C33.5534 5.65841 33.6284 5.79341 33.6734 5.86841C33.7184 5.94341 33.7634 6.00341 33.8084 6.07841C33.4934 5.44841 33.1034 4.84841 32.6534 4.29341C32.2184 3.79841 31.7084 3.30341 31.2284 2.89841Z" fill="url(#paint19_linear_4518_115154)"/>
<path d="M24.9584 20.5534C24.8834 20.5384 24.7784 20.5384 24.6884 20.5384C24.7784 20.5384 24.8684 20.5534 24.9584 20.5534Z" fill="url(#paint20_linear_4518_115154)"/>
<path d="M33.0134 5.17841C32.9684 5.10341 32.9384 5.04341 32.8934 4.98341C32.9084 4.99841 32.9084 5.01341 32.9234 5.04341C32.9684 5.14841 33.0284 5.26841 33.0584 5.34341C33.1034 5.41841 33.1184 5.47841 33.1184 5.47841C33.0584 5.32841 33.0284 5.25341 33.0134 5.20841C33.0134 5.17841 33.0134 5.17841 33.0134 5.17841Z" fill="url(#paint21_linear_4518_115154)"/>
<path d="M26.3084 20.5534C26.8484 20.5084 27.3884 20.4184 27.9134 20.2984C28.2434 20.2084 28.5734 20.0884 28.9034 19.9684C28.2284 20.2084 27.5384 20.3734 26.8334 20.4634C26.2184 20.5534 25.6034 20.5684 24.9884 20.5534C24.9884 20.5534 24.9734 20.5534 24.9734 20.5684C25.4084 20.5834 25.8584 20.5834 26.3084 20.5534Z" fill="#662D91"/>
<path d="M35.5334 9.10842C35.5184 9.15342 35.5034 9.19842 35.4884 9.24342C35.4734 9.07842 35.4584 8.95842 35.4584 8.82342C35.4584 8.76342 35.4434 8.68842 35.4434 8.61342C35.4284 8.53842 35.4134 8.46342 35.3984 8.37342C35.3984 8.47842 35.4134 8.56842 35.4134 8.67342V8.65842C35.3984 8.46342 35.3534 8.25342 35.3084 8.04342C35.2484 7.81842 35.2034 7.59342 35.1134 7.36842C34.9934 6.85842 34.7984 6.28842 34.5284 5.71842C34.2584 5.14842 33.8984 4.57842 33.4784 4.03842C33.0584 3.49842 32.5634 2.98842 32.0234 2.53842C31.4834 2.08842 30.8984 1.71342 30.2984 1.39842C30.1184 1.30842 29.9384 1.23342 29.9084 1.23342C29.8784 1.24842 29.9984 1.32342 30.1784 1.42842C30.8684 1.83342 31.4384 2.29842 32.0534 2.85342C33.1934 3.91842 34.0034 5.14842 34.6184 6.60342C34.6484 6.69342 34.6784 6.78342 34.7084 6.87342C34.7384 7.00842 34.7684 7.12842 34.7984 7.26342C34.7984 7.24842 34.7834 7.23342 34.7834 7.20342C34.7234 7.03842 34.6784 6.87342 34.6184 6.70842C34.6334 6.73842 34.6334 6.76842 34.6334 6.79842C34.3784 6.16842 34.0784 5.55342 33.7034 4.99842C33.3734 4.44342 32.9684 3.90342 32.4884 3.40842C32.0084 2.91342 31.4534 2.44842 30.8684 2.07342C30.2684 1.68342 29.6384 1.36842 28.9934 1.14342C28.3484 0.918419 27.6884 0.76842 27.0734 0.70842C26.8484 0.663419 26.6834 0.67842 26.7134 0.70842C26.7284 0.723419 26.7884 0.738419 26.8634 0.768419C26.9384 0.783419 27.0434 0.813418 27.1484 0.828418C28.3484 1.08342 29.5034 1.57842 30.4184 2.20842C30.4484 2.23842 30.3734 2.22342 30.4334 2.26842C30.4634 2.29842 30.4934 2.32842 30.5384 2.35842C30.4334 2.26842 30.2984 2.19342 30.1634 2.11842C30.1034 2.08842 30.0284 2.05842 29.9834 2.02842C29.9234 1.99842 29.8784 1.98342 29.8184 1.95342C29.7134 1.90842 29.6384 1.87842 29.5634 1.84842C29.4284 1.78842 29.3384 1.75842 29.2634 1.74342C29.2634 1.74342 29.2634 1.74342 29.2184 1.72842C29.1584 1.69842 29.0984 1.68342 29.0084 1.65342C28.9934 1.65342 28.9784 1.63842 28.9484 1.63842C28.8734 1.60842 28.7834 1.56342 28.7084 1.53342C28.6184 1.48842 28.5284 1.47342 28.4684 1.45842C28.4384 1.44342 28.4084 1.41342 28.3634 1.39842C28.2434 1.35342 28.1534 1.32342 28.0784 1.29342C28.0034 1.26342 27.9434 1.24842 27.8834 1.23342C27.7634 1.18842 27.6434 1.15842 27.3884 1.09842C27.3884 1.09842 27.3884 1.11342 27.4034 1.12842C27.3884 1.12842 27.3434 1.11342 27.2834 1.09842C27.2084 1.08342 27.1184 1.06842 27.0284 1.05342C26.9384 1.03842 26.8784 1.02342 26.8034 1.00842C26.7134 0.99342 26.5934 0.978419 26.3534 0.933419C26.3534 0.933419 26.3534 0.933419 26.5784 0.993419C26.5784 0.993419 26.5784 0.99342 26.3834 0.94842C26.3834 0.94842 26.3834 0.948419 26.4284 0.993419C26.4284 0.993419 26.4284 0.99342 26.3384 0.94842C26.3384 0.94842 26.3384 0.94842 26.3234 0.94842C26.3084 0.94842 26.2934 0.948421 26.2484 0.963421C26.2484 0.963421 26.2484 0.963419 25.8434 0.843419C25.8134 0.843419 25.7384 0.843419 25.5434 0.843419C25.5434 0.843419 25.4834 0.843419 25.4534 0.858419C25.4534 0.873419 25.4534 0.873418 25.2884 0.903418C25.2884 0.903418 25.2884 0.918419 25.3034 0.933419C25.3484 0.948419 25.3484 0.948418 25.3634 0.978418C25.3634 0.978418 25.4234 0.99342 25.4984 1.00842C25.5734 1.02342 25.5884 1.00842 25.8734 1.05342C25.8434 1.05342 25.8284 1.06842 25.7984 1.06842C25.7384 1.12842 25.7384 1.12842 26.0834 1.29342C26.0834 1.29342 26.1284 1.30842 26.2184 1.32342C26.3084 1.33842 26.4284 1.38342 26.5784 1.41342C26.7584 1.44342 26.8484 1.47342 26.9384 1.48842C27.0284 1.50342 27.1334 1.53342 27.3434 1.57842C27.3434 1.57842 27.4334 1.60842 27.5834 1.65342C27.6884 1.69842 27.7184 1.71342 27.7934 1.75842C27.7184 1.74342 27.6434 1.71342 27.5834 1.71342C27.4034 1.68342 27.3584 1.71342 27.5084 1.77342C27.2834 1.81842 27.3884 1.92342 27.6134 2.07342C27.5384 2.08842 27.4934 2.10342 27.4934 2.14842C27.1934 2.16342 26.9984 2.20842 26.9084 2.28342L26.8634 2.35842C26.9384 2.43342 27.1484 2.53842 27.4634 2.67342L27.5534 2.71842L27.4484 2.74842C27.6284 2.88342 27.9134 3.04842 28.1834 3.24342C28.2584 3.28842 28.3184 3.33342 28.3934 3.39342C28.4534 3.43842 28.5284 3.49842 28.5884 3.54342C28.7084 3.63342 28.8284 3.75342 28.9184 3.84342C28.9634 3.88842 29.0084 3.93342 29.0534 3.96342L29.1884 4.09842C29.3834 4.29342 29.7134 4.56342 30.0734 4.89342C30.1934 5.01342 30.3284 5.13342 30.4484 5.25342C30.5234 5.32842 30.5984 5.40342 30.6734 5.47842C30.5684 5.38842 30.4634 5.32842 30.3734 5.26842C30.2834 5.20842 30.1934 5.17842 30.1334 5.16342C29.9984 5.11842 29.9234 5.13342 29.9234 5.22342C29.9234 5.35842 30.1184 5.62842 30.3734 6.00342C30.6434 6.37842 30.9734 6.85842 31.2734 7.38342C31.6634 8.08842 31.9334 8.85342 32.0534 9.64842C32.1734 10.4434 32.1584 11.2534 32.0084 12.0484C31.8584 12.8284 31.5584 13.5934 31.1384 14.2984C30.7184 15.0034 30.1634 15.6334 29.5184 16.1584C29.2634 16.3534 29.0084 16.5484 28.7384 16.6984C27.8234 18.2134 26.5334 19.5184 24.9734 20.5384C25.5884 20.5534 26.2034 20.5384 26.8184 20.4484C27.5234 20.3434 28.2134 20.1784 28.8884 19.9534C28.5734 20.0884 28.2434 20.1934 27.8984 20.2834C27.3734 20.4184 26.8334 20.4934 26.2934 20.5384C25.8434 20.5684 25.3934 20.5684 24.9434 20.5384C24.9134 20.5534 24.8834 20.5834 24.8534 20.5984C24.9434 20.5984 25.0334 20.6134 25.1234 20.6134C25.6184 20.6284 26.1284 20.6134 26.6234 20.5534C26.0084 20.6434 25.3934 20.6734 24.7784 20.6584C24.7184 20.7034 24.6434 20.7334 24.5834 20.7784C25.3934 20.8234 26.2034 20.7934 26.9984 20.6434C27.8234 20.4934 28.6334 20.2534 29.3984 19.9084C29.8484 19.8034 30.5234 19.5334 31.2284 19.0984C31.5884 18.8884 31.9334 18.6184 32.2784 18.3334C32.4434 18.1834 32.6234 18.0334 32.7734 17.8684C32.8484 17.7934 32.9384 17.7034 33.0134 17.6284C33.0884 17.5384 33.1634 17.4634 33.2384 17.3734C33.6584 16.8784 33.9884 16.3534 34.2734 15.8134C34.1984 15.9334 34.1234 16.0534 34.0484 16.1734C33.9734 16.2934 33.8984 16.4134 33.8084 16.5184C33.9284 16.3384 34.0334 16.1734 34.1234 16.0084C34.2134 15.8284 34.3034 15.6634 34.3784 15.4984C34.5284 15.1684 34.6634 14.8384 34.7684 14.4934C34.7984 14.4334 34.8134 14.3884 34.8434 14.3284C35.1884 13.5934 35.4134 12.7234 35.5334 11.8234C35.6534 10.9234 35.6384 9.99342 35.5334 9.10842ZM26.4584 1.14342C26.4884 1.14342 26.5184 1.15842 26.5634 1.15842C26.5184 1.17342 26.4884 1.15842 26.4584 1.14342ZM26.6684 1.09842C26.6534 1.09842 26.6384 1.08342 26.6084 1.08342C26.6084 1.08342 26.6084 1.08342 26.7434 1.05342C26.7434 1.05342 26.7134 1.06842 26.6684 1.09842ZM27.2234 1.29342C27.2684 1.30842 27.2984 1.32342 27.3434 1.33842C27.3584 1.35342 27.3584 1.35342 27.2234 1.29342ZM27.8234 2.62841C27.7634 2.64341 27.7034 2.65842 27.6434 2.68842L27.6134 2.67342L27.8234 2.62841ZM29.8034 2.65842C29.7734 2.62842 29.7284 2.58342 29.6684 2.53842C29.6684 2.53842 29.6834 2.55341 29.7134 2.56841C29.7434 2.59841 29.7734 2.62842 29.8034 2.65842ZM33.0584 5.34341C33.0134 5.25341 32.9684 5.14841 32.9234 5.04341C32.9084 5.01341 32.9084 4.99841 32.8934 4.98341C32.9234 5.04341 32.9684 5.10341 33.0134 5.17841C33.0134 5.17841 33.0134 5.17842 33.0284 5.22342C33.0434 5.26842 33.0734 5.34342 33.1334 5.49342C33.1184 5.47842 33.1034 5.41841 33.0584 5.34341ZM33.6584 5.86842C33.6134 5.79342 33.5384 5.65842 33.5534 5.74842C33.2234 5.17842 32.8334 4.62342 32.3684 4.12842C32.2784 4.03842 32.1884 3.94842 32.0984 3.85842C32.0084 3.76842 31.9184 3.69342 31.8284 3.60342C31.6634 3.37842 31.4834 3.15342 31.2134 2.89842C31.6934 3.30342 32.2034 3.79842 32.6084 4.30842C33.0584 4.86342 33.4484 5.46342 33.7634 6.09342C33.7484 6.01842 33.7034 5.94342 33.6584 5.86842Z" fill="url(#paint22_linear_4518_115154)"/>
<path d="M26.5484 1.15841C26.5184 1.15841 26.4884 1.14341 26.4434 1.14341C26.4884 1.15841 26.5184 1.17341 26.5484 1.15841Z" fill="url(#paint23_linear_4518_115154)"/>
<path d="M26.6684 1.09842C26.7134 1.06842 26.7434 1.05342 26.7434 1.05342C26.6084 1.08342 26.6084 1.08342 26.6084 1.08342C26.6384 1.08342 26.6534 1.09842 26.6684 1.09842Z" fill="url(#paint24_linear_4518_115154)"/>
<path d="M45.0434 19.0834L44.9234 19.1284L44.8634 19.1434C44.7884 19.2184 44.7134 19.2784 44.6234 19.3534C44.8784 19.2634 45.1184 19.1734 45.3584 19.0684C45.2234 19.0984 45.1034 19.1134 45.0434 19.0834Z" fill="url(#paint25_linear_4518_115154)"/>
<path d="M47.6684 14.8534C47.2034 15.6034 46.6034 16.2784 45.8984 16.8484C45.5984 17.0884 45.2984 17.2834 45.0134 17.4784C44.7134 17.6584 44.4134 17.8234 44.1134 17.9734C43.4984 18.2584 42.8684 18.4984 42.1634 18.6184C42.1184 18.6184 42.1184 18.6334 42.1484 18.6484C42.1784 18.6484 42.2384 18.6484 42.2834 18.6484C43.4234 18.5134 44.5184 18.1084 45.4784 17.5234C45.9584 17.2234 46.4234 16.8784 46.8434 16.4884C46.9784 16.3684 47.1134 16.2334 47.2334 16.0984C47.4734 15.6184 47.6684 15.1234 47.8334 14.6134C47.7734 14.6884 47.7134 14.7634 47.6684 14.8534Z" fill="url(#paint26_linear_4518_115154)"/>
<path d="M46.8284 16.7884C46.4684 17.0734 46.0934 17.3134 45.6884 17.5234L45.5234 17.5984C45.4184 17.6434 45.3134 17.7034 45.2384 17.7634C45.1484 17.8234 45.0884 17.8684 45.0434 17.9134C45.0134 17.9434 44.9984 17.9584 44.9984 17.9734C44.6234 18.1534 44.2484 18.3034 43.8434 18.4384C43.4534 18.5584 43.0334 18.6484 42.6284 18.7084C41.8034 18.8434 40.9784 18.8434 40.1684 18.7534C40.0934 18.7384 40.0484 18.7534 40.0484 18.7684C40.0184 18.7534 39.9734 18.7534 39.9434 18.7384C39.8534 18.7384 39.7484 18.7234 39.6434 18.6934C39.5384 18.6784 39.4334 18.6634 39.3134 18.6334C39.2684 18.6184 39.2384 18.6184 39.2534 18.6334C39.2684 18.6484 39.3284 18.6784 39.3734 18.6784C39.4934 18.7084 39.5984 18.7234 39.7184 18.7384C39.8234 18.7534 39.9434 18.7684 40.0484 18.7834C40.0784 18.7834 40.0934 18.7834 40.0934 18.7834C40.1384 18.7984 40.2134 18.8284 40.2884 18.8284C40.7084 18.8884 41.1134 18.9184 41.5334 18.9184C41.9384 18.9184 42.3584 18.8884 42.7634 18.8134C43.1684 18.7534 43.5584 18.6484 43.9484 18.5284C44.3384 18.4084 44.7134 18.2584 45.1034 18.0934C44.7434 18.2884 44.3684 18.4534 43.9634 18.5884C43.5584 18.7234 43.1384 18.8284 42.7034 18.9034C42.1784 18.9934 41.6534 19.0234 41.1284 19.0234C40.6034 19.0084 40.0784 18.9484 39.5534 18.8284C39.4934 18.8134 39.4634 18.8134 39.4634 18.8284C39.4634 18.8434 39.5084 18.8584 39.5684 18.8734C40.6634 19.1434 41.7584 19.1434 42.7934 18.9484C43.8284 18.7534 44.8334 18.3934 45.8084 17.8384C45.8834 17.7934 45.9584 17.7484 46.0334 17.7034C45.4784 18.1234 44.8784 18.4984 44.2184 18.7684C43.1984 19.0984 42.1184 19.2184 41.0384 19.1584C39.9734 19.0984 38.9084 18.8284 37.9334 18.3784C37.8434 18.3334 37.7534 18.3034 37.7534 18.3184C37.7534 18.3334 37.8134 18.3934 37.9184 18.4384C38.9984 19.0084 40.2284 19.3534 41.4734 19.4284C41.3834 19.4284 41.2934 19.4434 41.2034 19.4434L40.9484 19.4284C40.1384 19.3534 39.3434 19.1734 38.5934 18.8884C38.3084 18.7684 38.0684 18.7084 38.0234 18.7534C37.9934 18.7984 38.1884 18.9334 38.4584 19.0534C38.4134 19.0384 38.3684 19.0234 38.3234 19.0084C38.2784 18.9934 38.2484 18.9934 38.2484 18.9934C38.2634 19.0084 38.3234 19.0384 38.3684 19.0534C38.5334 19.1134 38.6984 19.1584 38.8634 19.2034C40.3484 19.7434 41.9834 19.8334 43.5434 19.5184C41.8934 19.9084 40.0784 19.8034 38.4284 19.1734C38.4584 19.1734 38.4734 19.1734 38.4284 19.1434C38.3984 19.1284 38.3234 19.0984 38.2934 19.0834C38.2484 19.0684 38.2484 19.0834 38.2934 19.1134C37.8584 18.9334 37.4234 18.7234 37.0334 18.4684C36.6284 18.2134 36.2384 17.9434 35.8784 17.6284C35.8334 17.5984 35.7884 17.5684 35.7884 17.5834C35.7884 17.5984 35.8184 17.6284 35.8634 17.6734C37.0634 18.7084 38.5484 19.3984 40.0784 19.6534C41.6084 19.9234 43.1984 19.7584 44.6084 19.2334L44.8334 19.1584L44.8934 19.1434C45.6434 18.4384 46.3034 17.6434 46.8284 16.7884Z" fill="url(#paint27_linear_4518_115154)"/>
<path d="M42.2534 19.8634C41.3534 19.9084 40.4534 19.8184 39.5684 19.5934C39.4484 19.5634 39.3284 19.5484 39.3284 19.5634C39.3134 19.5784 39.4184 19.6234 39.5534 19.6684C39.7634 19.7134 39.9884 19.7734 40.2134 19.8034C40.1234 19.8034 40.0484 19.8034 39.9884 19.8184C39.9284 19.8334 39.8984 19.8334 39.8834 19.8634C39.8684 19.9084 39.9434 19.9684 40.0934 20.0284C39.5984 19.9534 39.1034 19.8484 38.6234 19.7134C38.1434 19.5634 37.6784 19.3834 37.2284 19.1884C37.1684 19.1584 37.1384 19.1584 37.1534 19.1734C37.1684 19.1884 37.2134 19.2184 37.2734 19.2484C37.9184 19.5784 38.5934 19.8184 39.2984 19.9984C39.9884 20.1634 40.6934 20.2534 41.4134 20.2684C42.1334 20.3284 42.8684 20.3284 43.6034 20.2084C43.9784 19.9534 44.3384 19.6684 44.6684 19.3684C43.8734 19.6384 43.0634 19.8034 42.2534 19.8634Z" fill="url(#paint28_linear_4518_115154)"/>
<path d="M42.8084 20.4634C41.6084 20.6134 40.3934 20.5684 39.2084 20.2834C38.0234 20.0134 36.8834 19.5184 35.8634 18.8284C35.7284 18.7384 35.6234 18.6634 35.5334 18.6184C35.4434 18.5734 35.3984 18.5584 35.3984 18.5884C35.3984 18.6484 35.6084 18.8584 35.8634 19.0384C36.8534 19.7284 37.9184 20.2084 39.0434 20.4784C40.1684 20.7484 41.3234 20.8384 42.5234 20.7034C42.6134 20.6884 42.7034 20.6734 42.7934 20.6734C42.9584 20.5834 43.1084 20.4784 43.2734 20.3734C43.1234 20.4184 42.9584 20.4484 42.8084 20.4634Z" fill="url(#paint29_linear_4518_115154)"/>
<path d="M38.7134 19.2784C38.7584 19.2934 38.7584 19.2784 38.7134 19.2484C38.6834 19.2334 38.6234 19.2034 38.5784 19.2034C38.5484 19.2034 38.5334 19.2034 38.5784 19.2334C38.6234 19.2484 38.6834 19.2784 38.7134 19.2784Z" fill="url(#paint30_linear_4518_115154)"/>
<path d="M20.0684 19.3234C20.0684 19.3534 20.0684 19.3834 20.0534 19.4134L20.2934 19.5484L20.5634 19.6984L20.8484 19.8334C21.2234 20.0134 21.6134 20.1784 22.0184 20.2984C22.4234 20.4334 22.8284 20.5384 23.2334 20.6134C23.6534 20.6884 24.0584 20.7484 24.4784 20.7784C24.5084 20.7784 24.5384 20.7784 24.5684 20.7784C24.6284 20.7334 24.7034 20.7034 24.7634 20.6584C23.1284 20.5984 21.4934 20.1334 20.0684 19.3234Z" fill="url(#paint31_linear_4518_115154)"/>
<path d="M26.2334 17.6284L26.0084 17.6584L25.7834 17.6734L25.6784 17.6884H25.5584L25.3334 17.7034C25.2584 17.7034 25.1834 17.7034 25.1084 17.7034C25.0334 17.7034 24.9584 17.7034 24.8834 17.7034C24.7334 17.6884 24.5834 17.6884 24.4334 17.6734C24.1334 17.6434 23.8334 17.5834 23.5334 17.5234L23.3084 17.4634L23.0984 17.4034C23.0234 17.3734 22.9484 17.3584 22.8734 17.3284C22.7984 17.2984 22.7234 17.2684 22.6634 17.2384L22.5584 17.2084L22.2434 17.0734L22.0484 16.9834C21.9734 16.9534 21.9134 16.9234 21.8534 16.8784L21.6584 16.7734C21.5984 16.7434 21.5234 16.6984 21.4634 16.6684C21.3284 16.5934 21.2084 16.5184 21.0884 16.4284C20.5934 16.0984 20.1434 15.7084 19.7384 15.2584C19.3484 14.8084 18.9884 14.3284 18.7034 13.8034C18.4184 13.2784 18.1934 12.7084 18.0434 12.1234C17.7884 11.1334 17.7284 10.1884 17.7884 9.28841C17.8184 8.83841 17.8934 8.38841 18.0134 7.93841C18.1334 7.48841 18.2834 7.05341 18.4934 6.61841C18.5234 6.57341 18.5084 6.55841 18.4934 6.57341C18.4634 6.60341 18.4184 6.67841 18.4034 6.72341C17.6984 8.10341 17.4134 9.66341 17.5784 11.2084C17.7284 12.7384 18.3434 14.2384 19.3484 15.4684C19.5734 15.7534 19.8284 16.0234 20.0834 16.2634C20.1134 16.2934 20.1434 16.3234 20.1734 16.3534C20.4134 16.5784 20.6534 16.7884 20.9234 16.9834C20.8334 16.9234 20.7434 16.8634 20.6534 16.7884C20.5634 16.7134 20.4734 16.6534 20.4134 16.6234C20.3534 16.5784 20.2934 16.5634 20.2784 16.5634C20.2634 16.5784 20.2784 16.6084 20.3234 16.6534C19.9934 16.3984 19.6784 16.1134 19.3934 15.8134C19.1084 15.5134 18.8384 15.1834 18.5984 14.8534C18.4634 14.6434 18.3434 14.4484 18.2384 14.2834C17.8184 13.3984 17.5784 12.4534 17.5034 11.4934L17.4884 11.2534C17.4734 10.9384 17.4584 10.6234 17.4134 10.4734C17.3984 10.4284 17.3834 10.3984 17.3834 10.3834C17.3834 9.82841 17.4584 9.25841 17.5784 8.71841C17.6984 8.16341 17.8784 7.63841 18.1184 7.12841C18.5834 6.10841 19.2584 5.19341 20.0384 4.44341C20.1134 4.36841 20.1584 4.32341 20.1284 4.32341C20.1584 4.30841 20.2034 4.26341 20.2484 4.23341C20.2934 4.18841 20.3384 4.14341 20.3984 4.09841C20.4584 4.05341 20.5034 4.00841 20.5634 3.96341C20.6234 3.91841 20.6834 3.87341 20.7434 3.82841C20.8034 3.78341 20.8634 3.73841 20.9234 3.69341C20.9834 3.64841 20.9984 3.61841 20.9684 3.63341C20.9384 3.64841 20.8634 3.67841 20.8184 3.72341C20.5634 3.90341 20.3234 4.11341 20.1134 4.30841C20.0984 4.32341 20.0834 4.33841 20.0834 4.35341C20.0234 4.38341 19.9484 4.44341 19.8734 4.51841C19.0334 5.28341 18.3884 6.21341 17.9384 7.21841C17.4884 8.22341 17.2484 9.31841 17.2184 10.4434C17.2034 9.34841 17.4134 8.20841 17.8934 7.11341C18.1934 6.45341 18.5534 5.83841 18.9884 5.29841C19.1984 5.01341 19.4384 4.75841 19.6934 4.50341C19.8284 4.38341 19.9484 4.24841 20.0984 4.14341C20.1734 4.08341 20.2334 4.02341 20.3084 3.96341C20.3834 3.90341 20.4584 3.85841 20.5334 3.79841C20.5934 3.75341 20.6384 3.72341 20.6234 3.70841C20.6084 3.70841 20.5484 3.73841 20.4884 3.78341C20.4134 3.84341 20.3384 3.90341 20.2634 3.94841C20.1884 4.00841 20.1134 4.06841 20.0384 4.12841L19.8284 4.30841C19.7534 4.36841 19.6934 4.42841 19.6184 4.50341C19.4834 4.63841 19.3484 4.75841 19.2284 4.90841C19.1684 4.98341 19.1084 5.04341 19.0484 5.11841L18.8834 5.32841C18.8234 5.40341 18.7784 5.47841 18.7184 5.55341C18.6734 5.62841 18.6134 5.70341 18.5684 5.77841C18.4784 5.92841 18.3734 6.07841 18.2834 6.24341C18.1034 6.55841 17.9534 6.87341 17.8034 7.20341C17.5334 7.86341 17.3384 8.55341 17.2334 9.25841C17.2184 9.34841 17.2034 9.43841 17.1884 9.52841C17.1734 9.61841 17.1734 9.70841 17.1584 9.79841L17.1434 9.93341V10.0684C17.1434 10.1584 17.1284 10.2484 17.1284 10.3384C17.1284 10.4284 17.1284 10.5184 17.1284 10.6234V10.8934C17.1284 10.9834 17.1284 11.0884 17.1434 11.1784C17.1434 11.2684 17.1584 11.3734 17.1734 11.4634C17.1734 11.5834 17.2034 11.7034 17.2034 11.8234C16.9934 10.8934 16.9484 9.93341 17.0684 8.98841C17.2184 8.28341 17.4434 7.57841 17.7584 6.93341C17.9084 6.60341 18.1034 6.28841 18.2984 5.98841C18.4034 5.83841 18.4934 5.68841 18.6134 5.53841L18.7784 5.32841L18.9584 5.11841C19.0184 5.04341 19.0784 4.98341 19.1384 4.90841L19.3184 4.71341C19.4534 4.59341 19.5734 4.45841 19.7084 4.33841C19.9784 4.08341 20.2634 3.87341 20.5484 3.64841L20.7734 3.49841L21.0134 3.34841L21.4934 3.07841L21.9734 2.83841C22.0634 2.80841 22.1384 2.76341 22.2284 2.73341C22.3184 2.70341 22.3934 2.65841 22.4834 2.62841C22.6184 2.58341 22.7234 2.52341 22.7084 2.50841C22.6934 2.49341 22.5734 2.50841 22.4384 2.56841C20.8634 3.09341 19.4234 4.09841 18.3734 5.43341C18.4334 5.32841 18.5084 5.23841 18.5684 5.13341L18.7934 4.86341C19.5284 4.05341 20.3984 3.37841 21.3884 2.86841C21.4334 2.83841 21.4784 2.82341 21.5234 2.79341C21.5684 2.77841 21.6134 2.74841 21.6434 2.73341C21.7184 2.68841 21.7934 2.65841 21.8534 2.61341C21.9734 2.53841 22.0484 2.49341 22.0484 2.46341C22.0484 2.43341 21.9584 2.44841 21.8384 2.47841C21.7184 2.50841 21.5534 2.56841 21.3584 2.65841C21.4184 2.62841 21.4784 2.59841 21.5384 2.56841C21.5984 2.53841 21.6434 2.50841 21.6134 2.50841C21.5834 2.50841 21.5084 2.53841 21.4484 2.56841C21.3434 2.62841 21.2384 2.68841 21.1484 2.74841C21.0434 2.80841 20.9534 2.86841 20.8484 2.92841C19.9184 3.45341 19.0784 4.14341 18.3884 4.96841C17.6984 5.79341 17.1584 6.73841 16.8134 7.74341C17.1734 6.64841 17.7434 5.61341 18.5084 4.71341C19.2734 3.81341 20.2184 3.07841 21.2834 2.53841C21.2384 2.56841 21.2384 2.58341 21.2984 2.55341C21.3434 2.53841 21.4334 2.49341 21.4784 2.46341C21.5234 2.43341 21.5084 2.43341 21.4634 2.44841C22.6184 1.89341 23.9084 1.60841 25.1834 1.59341C25.2584 1.59341 25.3184 1.57841 25.3184 1.57841C25.3184 1.56341 25.2434 1.56341 25.1684 1.56341C24.1034 1.56341 23.0384 1.78841 22.0334 2.16341C21.0434 2.53841 20.1284 3.10841 19.3334 3.81341C18.9434 4.15841 18.5834 4.54841 18.2534 4.95341C17.9234 5.35841 17.6384 5.80841 17.3984 6.25841C17.1584 6.70841 16.9484 7.18841 16.7834 7.68341C16.6184 8.17841 16.5134 8.67341 16.4384 9.18341C16.3934 9.40841 16.3784 9.61841 16.3484 9.84341C16.3034 9.90341 16.2584 10.0534 16.2134 10.2484C16.2434 9.51341 16.3634 8.79341 16.5584 8.10341C16.7534 7.39841 17.0534 6.72341 17.4134 6.09341C18.0434 5.04341 18.8684 4.12841 19.8584 3.39341C20.0084 3.28841 20.1134 3.19841 20.0984 3.16841C20.0834 3.15341 19.9634 3.21341 19.8134 3.31841C19.6934 3.40841 19.5734 3.49841 19.4534 3.58841C19.3334 3.67841 19.2284 3.78341 19.1084 3.88841C19.2734 3.70841 19.3784 3.55841 19.3634 3.51341C19.3484 3.46841 19.2284 3.51341 19.0484 3.63341C20.0384 2.70341 21.2384 1.96841 22.4984 1.51841C22.5734 1.48841 22.6184 1.47341 22.5884 1.47341C22.5584 1.47341 22.4834 1.48841 22.4084 1.51841C20.5484 2.13341 18.9284 3.33341 17.7734 4.86341C17.6534 5.01341 17.5334 5.16341 17.4284 5.31341C17.3084 5.46341 17.2034 5.62841 17.0984 5.77841C16.8884 6.09341 16.6934 6.42341 16.5284 6.76841C16.3484 7.11341 16.2134 7.47341 16.0784 7.84841C15.9584 8.22341 15.8384 8.61341 15.7634 9.03341C15.5384 10.2184 15.5534 11.4184 15.7934 12.5434C16.0184 13.6684 16.4534 14.7334 17.0684 15.6934C17.4734 16.3984 17.9684 17.0434 18.5234 17.6134C18.4334 17.5534 18.3584 17.5084 18.3434 17.5384C18.3434 17.5384 18.3434 17.5534 18.3434 17.5684C17.8484 17.0584 17.4134 16.4884 17.0234 15.8584C16.8134 15.4984 16.6034 15.1234 16.4384 14.7484C16.3484 14.5534 16.2734 14.3584 16.1984 14.1634C16.1534 14.0734 16.1234 13.9684 16.0934 13.8634C16.0634 13.7584 16.0184 13.6684 16.0034 13.5634C15.7634 12.7684 15.6134 11.9434 15.5834 11.1184C15.5534 10.2934 15.5984 9.46841 15.7634 8.67341C15.8084 8.47841 15.8534 8.26841 15.8984 8.07341C15.9284 7.96841 15.9434 7.87841 15.9734 7.77341L16.0634 7.48841C16.0934 7.38341 16.1234 7.29341 16.1684 7.20341L16.2734 6.91841L16.3934 6.63341C16.4384 6.54341 16.4684 6.43841 16.5134 6.34841C16.8584 5.61341 17.3084 4.90841 17.8184 4.29341C18.0734 3.97841 18.3584 3.67841 18.6584 3.39341C18.9584 3.12341 19.2734 2.83841 19.6034 2.59841C20.9234 1.62341 22.4984 0.963411 24.1484 0.738411C24.2084 0.723411 24.2534 0.723409 24.2984 0.708409C24.3434 0.708409 24.3884 0.693408 24.4334 0.693408C24.5234 0.678408 24.5984 0.66341 24.6584 0.64841C24.7784 0.61841 24.8384 0.58841 24.8234 0.57341C24.7934 0.54341 24.6884 0.543407 24.5234 0.528407C24.4484 0.528407 24.3434 0.528407 24.2534 0.528407C24.1484 0.543407 24.0434 0.543409 23.9384 0.558409C23.7434 0.573409 23.5334 0.618411 23.3384 0.663411C23.1434 0.708411 22.9484 0.75341 22.7534 0.79841C22.3634 0.90341 21.9884 1.02341 21.6284 1.17341C20.8934 1.47341 20.2034 1.84841 19.5734 2.29841C18.9434 2.74841 18.3584 3.28841 17.8484 3.87341C17.3384 4.47341 16.8884 5.13341 16.5134 5.85341C16.2434 6.36341 16.0334 6.88841 15.8684 7.41341C15.7034 7.93841 15.5834 8.46341 15.4934 8.98841C15.3284 10.0534 15.3434 11.1334 15.5234 12.2584C15.7484 13.5784 16.2284 14.7934 16.8884 15.8884C17.4734 16.8484 18.2234 17.7034 19.1084 18.4084C19.1684 17.8534 19.1384 17.1634 18.9434 16.3234C19.2884 16.6984 20.1734 17.7634 20.1134 19.1734C20.0834 20.2534 19.5134 21.0334 18.8384 21.9784C18.1934 22.8784 17.5184 23.4934 17.0384 23.8834L23.6984 20.5084C24.0884 20.5834 24.4934 20.6284 24.8984 20.6434C24.9284 20.6284 24.9584 20.5984 24.9884 20.5834C24.8984 20.5834 24.8084 20.5684 24.7184 20.5684C24.8084 20.5684 24.9134 20.5684 25.0034 20.5834C26.5634 19.5784 27.8534 18.2584 28.7684 16.7434C27.9584 17.1784 27.1034 17.4934 26.2334 17.6284Z" fill="url(#paint32_linear_4518_115154)"/>
<path d="M48.6884 17.4184C48.7184 17.3884 48.7484 17.3584 48.7634 17.3284C48.8384 17.2534 48.8984 17.1784 48.9734 17.0884C49.3784 16.6534 49.7534 16.1734 50.0534 15.6784C50.0234 15.7534 50.0234 15.8134 50.0384 15.8284C50.0384 15.8284 50.0534 15.8284 50.0684 15.8284C49.7834 16.2784 49.4684 16.6984 49.1084 17.1034C48.9734 17.2684 48.8234 17.4184 48.6734 17.5684C48.6734 17.6434 48.6734 17.7184 48.6734 17.7784C48.6884 17.7634 48.7184 17.7334 48.7334 17.7184C48.8234 17.6284 48.8984 17.5534 48.9734 17.4634C49.0484 17.3734 49.1384 17.2984 49.2134 17.2084L49.4384 16.9384L49.6484 16.6534C49.7234 16.5634 49.7834 16.4584 49.8584 16.3684C49.9184 16.2634 49.9934 16.1734 50.0534 16.0684C50.3084 15.6784 50.5484 15.2584 50.7434 14.8234C50.8184 14.6584 50.9084 14.4784 50.9684 14.2984C51.0284 14.1184 51.1034 13.9384 51.1484 13.7434C51.3884 13.0234 51.5534 12.2884 51.6284 11.5534C51.7034 10.8184 51.7034 10.0684 51.6284 9.33341C51.8984 11.0884 51.6884 12.9034 51.0734 14.5684C51.0284 14.6884 51.0134 14.7784 51.0284 14.7634C51.0584 14.7484 51.1184 14.6434 51.1634 14.5384C51.6134 13.3834 51.8534 12.1384 51.8684 10.9084C51.8834 9.66341 51.6734 8.43341 51.2534 7.26341C51.2234 6.91841 51.0884 6.39341 50.8334 5.82341C50.5934 5.25341 50.2334 4.65341 49.8134 4.14341C49.5134 3.76841 49.1984 3.45341 48.8384 3.16841C48.9134 3.24341 48.9884 3.31841 49.0484 3.39341C49.1234 3.46841 49.1834 3.54341 49.2584 3.63341C49.1534 3.52841 49.0484 3.40841 48.9434 3.31841C48.8384 3.22841 48.7334 3.13841 48.6284 3.04841C48.4035 2.88341 48.1934 2.73341 47.9834 2.58341C47.9534 2.55341 47.9084 2.52341 47.8784 2.49341C47.4284 2.08841 46.8734 1.72841 46.2884 1.41341C45.6884 1.11341 45.0584 0.858406 44.4284 0.678406C44.4434 0.708406 44.4734 0.738407 44.5034 0.768407C44.3834 0.723407 44.2934 0.693409 44.2034 0.648409C44.1134 0.618409 44.0084 0.573407 43.8884 0.543407C43.9634 0.573407 44.0234 0.603408 44.0984 0.633408H44.0834C43.9484 0.588408 43.7984 0.543409 43.6334 0.498409C43.4684 0.468409 43.3034 0.423408 43.1234 0.408408C42.9284 0.363408 42.7334 0.318409 42.5234 0.273409C42.4184 0.258409 42.3134 0.243406 42.1934 0.228406C42.0884 0.213406 41.9684 0.213409 41.8484 0.198409C41.3834 0.168409 40.8884 0.16841 40.3934 0.21341C39.3884 0.31841 38.3384 0.60341 37.4534 1.03841C37.3184 1.09841 37.1984 1.17341 37.1834 1.20341C37.1834 1.23341 37.2734 1.20341 37.4234 1.14341C37.5584 1.09841 37.6934 1.05341 37.8284 0.993407C37.9634 0.948407 38.0984 0.918409 38.2334 0.873409C38.5034 0.798409 38.7884 0.73841 39.0884 0.66341C39.6584 0.54341 40.1984 0.483406 40.7684 0.453406C41.3234 0.438406 41.8784 0.45341 42.4634 0.51341C42.5384 0.52841 42.5984 0.528407 42.6734 0.543407C42.7634 0.573407 42.8684 0.603408 42.9584 0.633408C42.9434 0.633408 42.9284 0.633408 42.9134 0.633408L42.5234 0.573409C42.5534 0.573409 42.5684 0.58841 42.5984 0.58841C42.1034 0.52841 41.5934 0.513406 41.0984 0.528406C40.6184 0.513406 40.1234 0.558409 39.6134 0.648409C39.1034 0.738409 38.5934 0.873406 38.1134 1.05341C37.8734 1.14341 37.6334 1.24841 37.3934 1.36841C37.2734 1.42841 37.1684 1.48841 37.0484 1.54841C36.9284 1.60841 36.8234 1.68341 36.7184 1.74341C36.6584 1.77341 36.6134 1.80341 36.5534 1.84841C36.4934 1.87841 36.4484 1.92341 36.4034 1.95341C36.2984 2.02841 36.1934 2.08841 36.1034 2.16341C35.9084 2.31341 35.7284 2.46341 35.5634 2.62841C35.4284 2.73341 35.3534 2.82341 35.3834 2.82341C35.4134 2.82341 35.5484 2.74841 35.6684 2.64341L35.9384 2.46341C36.0284 2.40341 36.1334 2.34341 36.2234 2.28341C36.4184 2.17841 36.6134 2.05841 36.8084 1.95341C37.1984 1.74341 37.6034 1.59341 38.0084 1.45841C38.0384 1.44341 37.9934 1.50341 38.0684 1.48841C38.0984 1.48841 38.1284 1.47341 38.1584 1.47341C38.1134 1.48841 38.0534 1.50341 38.0084 1.51841C37.9634 1.53341 37.9034 1.56341 37.8434 1.57841C37.7534 1.63841 37.6634 1.68341 37.6034 1.71341C37.5284 1.75841 37.4834 1.78841 37.4384 1.81841C37.3484 1.87841 37.2884 1.90841 37.2434 1.93841C37.2434 1.93841 37.2434 1.93841 37.2134 1.95341C37.1684 1.98341 37.1384 2.01341 37.0784 2.04341C37.0634 2.05841 37.0634 2.05841 37.0484 2.07341C36.9884 2.10341 36.9284 2.13341 36.8684 2.16341C36.8084 2.19341 36.7484 2.23841 36.7184 2.26841C36.6884 2.26841 36.6584 2.28341 36.6284 2.29841C36.2984 2.47841 36.2984 2.47841 35.9834 2.68841C35.9834 2.68841 35.9834 2.68841 35.9984 2.70341C35.9984 2.70341 35.9684 2.73341 35.9234 2.76341C35.8784 2.79341 35.8334 2.83841 35.7734 2.88341C35.7134 2.92841 35.6834 2.94341 35.6384 2.98841C35.6084 3.00341 35.5784 3.03341 35.5334 3.06341C35.4884 3.09341 35.4434 3.13841 35.3684 3.19841C35.3684 3.19841 35.3684 3.19841 35.5184 3.10841C35.5184 3.10841 35.5184 3.10841 35.3834 3.18341C35.3834 3.18341 35.3834 3.18341 35.4434 3.18341C35.4434 3.18341 35.4434 3.18341 35.3684 3.19841C35.3684 3.19841 35.3684 3.19841 35.3384 3.25841C35.3384 3.25841 35.3384 3.25841 35.3084 3.27341C35.2784 3.28841 35.2034 3.31841 35.0684 3.39341C35.0534 3.40841 35.0084 3.45341 34.9184 3.55841C34.9184 3.55841 34.8884 3.58841 34.8884 3.61841C34.8884 3.63341 34.8884 3.63341 34.8284 3.73841C34.8284 3.73841 34.8284 3.75341 34.8584 3.75341C34.8884 3.73841 34.8884 3.73841 34.9184 3.75341C34.9184 3.75341 34.9634 3.73841 35.0084 3.70841C35.0534 3.67841 35.0684 3.66341 35.2334 3.52841C35.2184 3.54341 35.2184 3.55841 35.2034 3.57341C35.2034 3.60341 35.2184 3.63341 35.2484 3.63341C35.2934 3.63341 35.3534 3.61841 35.5034 3.58841C35.5034 3.58841 35.6384 3.52841 35.8334 3.39341C35.9384 3.31841 35.9984 3.27341 36.0584 3.24341C36.1184 3.19841 36.1784 3.15341 36.3134 3.07841C36.3134 3.07841 36.3734 3.04841 36.4634 2.98841C36.5534 2.95841 36.5684 2.95841 36.6284 2.92841C36.5834 2.95841 36.5384 3.00341 36.5084 3.03341C36.4034 3.12341 36.4184 3.16841 36.5234 3.12341C36.4484 3.28841 36.5834 3.30341 36.7784 3.27341C36.7484 3.33341 36.7484 3.37841 36.7784 3.39341C36.7184 3.48341 36.6734 3.57341 36.6434 3.64841C36.6134 3.72341 36.5984 3.78341 36.6134 3.84341L36.6434 3.91841C36.6884 3.93341 36.7484 3.91841 36.8384 3.88841C36.9284 3.87341 37.0334 3.82841 37.1384 3.78341C37.1684 3.76841 37.1834 3.76841 37.2134 3.75341L37.1834 3.84341C37.2734 3.82841 37.3784 3.81341 37.4984 3.79841C37.5584 3.78341 37.6184 3.76841 37.6784 3.75341C37.7384 3.73841 37.7984 3.72341 37.8584 3.72341C37.9784 3.69341 38.0984 3.67841 38.2184 3.66341C38.3384 3.64841 38.4434 3.63341 38.5484 3.63341L38.8334 3.60341C38.9384 3.60341 39.0734 3.58841 39.2084 3.55841C39.2834 3.54341 39.3584 3.52841 39.4484 3.51341C39.5234 3.49841 39.6134 3.46841 39.7034 3.45341C39.8234 3.42341 39.9584 3.39341 40.0784 3.37841C40.1534 3.36341 40.2284 3.34841 40.3184 3.33341C39.9434 3.49841 39.7634 3.67841 39.8684 3.78341C39.9134 3.82841 40.0034 3.85841 40.1084 3.87341C40.1684 3.88841 40.2284 3.88841 40.3034 3.88841C40.3334 3.88841 40.3784 3.88841 40.4234 3.88841C40.4684 3.88841 40.4984 3.88841 40.5434 3.88841C40.8884 3.88841 41.3084 3.87341 41.7584 3.85841C42.9584 3.85841 44.1284 4.17341 45.1634 4.74341C45.6734 5.02841 46.1534 5.38841 46.6034 5.80841C46.8134 6.01841 47.0384 6.24341 47.2184 6.48341C47.3234 6.60341 47.3984 6.72341 47.5034 6.84341C47.5484 6.90341 47.5934 6.97841 47.6384 7.03841C47.6834 7.09841 47.7284 7.17341 47.7584 7.23341C48.2384 8.01341 48.5534 8.85341 48.7034 9.73841C48.8534 10.6084 48.8234 11.5234 48.5984 12.4084C48.4484 13.1734 48.1784 13.9234 47.7884 14.5984C47.6384 15.1084 47.4284 15.6034 47.1884 16.0834C47.4584 15.7984 47.7134 15.4834 47.9384 15.1534C48.0134 15.0334 48.0884 14.9284 48.1634 14.8234C48.2384 14.7034 48.3134 14.5984 48.3734 14.4934C48.3884 14.4634 48.4034 14.4484 48.4184 14.4184L48.5084 14.2684C48.5384 14.2234 48.5684 14.1634 48.5984 14.1184C48.6584 14.0134 48.7184 13.9084 48.7634 13.8034C48.7334 13.8784 48.7034 13.9534 48.6584 14.0284C48.5834 14.1784 48.5384 14.3134 48.5684 14.3434C48.5834 14.3434 48.5984 14.3434 48.6284 14.3134C48.3734 14.8834 48.0584 15.4084 47.6984 15.9184C47.6684 15.9484 47.6384 15.9934 47.6084 16.0234C47.5784 16.0534 47.5484 16.0834 47.5184 16.1284C47.4584 16.1884 47.4134 16.2634 47.3684 16.3234C47.1734 16.5034 46.9784 16.6684 46.7684 16.8334C46.2434 17.6884 45.5834 18.4834 44.8034 19.2034L44.8634 19.1884L44.9834 19.1434C45.0434 19.1584 45.1634 19.1584 45.3134 19.1284C45.0734 19.2334 44.8334 19.3384 44.5784 19.4134C44.2484 19.7134 43.8884 19.9834 43.5134 20.2534C43.9184 20.1934 44.3234 20.1034 44.7434 19.9834C45.1784 19.8484 45.5834 19.6834 45.9734 19.5034C46.3634 19.3084 46.7384 19.0984 47.0834 18.8434C47.3084 18.6934 47.5184 18.5284 47.7134 18.3634C47.9384 17.3734 48.5384 16.6534 48.8084 16.3534C48.7784 16.6984 48.7184 17.0734 48.6884 17.4184ZM51.3134 7.83341L51.3734 8.01341C51.4034 8.13341 51.4484 8.25341 51.4784 8.38841C51.6284 9.16841 51.7034 9.96341 51.6584 10.7734C51.6584 10.2484 51.6284 9.72341 51.5684 9.19841C51.5084 8.67341 51.4034 8.16341 51.2684 7.65341L51.3134 7.83341ZM35.6834 3.25842C35.6684 3.27342 35.6384 3.28842 35.6234 3.30342C35.6534 3.30342 35.6684 3.28842 35.6834 3.25842ZM35.6984 3.15341C35.6834 3.15341 35.6684 3.16841 35.6534 3.16841C35.6534 3.16841 35.6534 3.16841 35.6984 3.07841C35.6984 3.07841 35.6984 3.10841 35.6984 3.15341ZM36.0884 2.97341C36.1184 2.95841 36.1334 2.94341 36.1784 2.94341C36.1784 2.92841 36.1484 2.94341 36.0884 2.97341ZM37.2434 3.67841H37.2284C37.2584 3.57341 37.3034 3.48341 37.3334 3.37841C37.3034 3.48341 37.2734 3.58841 37.2434 3.67841ZM38.1434 2.22341C38.1134 2.22341 38.0684 2.22412 38.0084 2.23912C38.0084 2.23912 38.0684 2.23841 38.1434 2.22341ZM40.8734 1.23341C40.8584 1.23341 40.8434 1.23341 40.8284 1.23341C40.8734 1.23341 40.9334 1.23341 40.9934 1.23341C40.9934 1.23341 40.9934 1.23341 41.2334 1.29341C41.2334 1.29341 41.0534 1.26341 40.8734 1.23341ZM41.6834 1.02341C41.6234 1.02341 41.5034 1.02341 41.5784 1.05341C41.3384 1.05341 41.0984 1.06841 40.8434 1.08341C40.7234 1.09841 40.6034 1.11341 40.4684 1.12841C40.3484 1.14341 40.2134 1.15841 40.0934 1.18841C39.9134 1.21841 39.7184 1.26341 39.5534 1.30841C39.4484 1.30841 39.3434 1.30841 39.2234 1.30841C39.1034 1.30841 38.9834 1.32341 38.8484 1.35341C39.2984 1.24841 39.8084 1.12841 40.2884 1.08341C40.8134 1.02341 41.3384 1.00841 41.8634 1.03841C41.8034 1.02341 41.7434 1.02341 41.6834 1.02341Z" fill="url(#paint33_linear_4518_115154)"/>
<path d="M46.2434 19.3684C45.3134 19.8634 44.3084 20.2084 43.2734 20.3884C43.1234 20.4934 42.9584 20.5834 42.7934 20.6884C43.1234 20.6434 43.4384 20.5834 43.7384 20.5084C43.9334 20.4634 44.1284 20.4034 44.3234 20.3584C44.4134 20.3284 44.5184 20.2984 44.6084 20.2684C44.6984 20.2384 44.8034 20.2084 44.8934 20.1784C45.0734 20.1034 45.2684 20.0434 45.4484 19.9534C45.5384 19.9084 45.6284 19.8784 45.7184 19.8334C45.8084 19.7884 45.8984 19.7434 45.9884 19.6984C46.0784 19.6534 46.1684 19.6084 46.2584 19.5634C46.3484 19.5184 46.4384 19.4734 46.5284 19.4134C46.7084 19.3084 46.8884 19.2034 47.0534 19.0834C47.2784 18.9334 47.4884 18.7834 47.6984 18.6184C47.7134 18.5434 47.7134 18.4684 47.7284 18.3934C47.2784 18.7684 46.7684 19.0984 46.2434 19.3684Z" fill="url(#paint34_linear_4518_115154)"/>
<path d="M48.9584 21.9484C48.2834 21.0184 47.7284 20.2534 47.6834 19.1434C47.6834 18.9634 47.6834 18.7984 47.7134 18.6184C47.7284 18.5434 47.7284 18.4684 47.7434 18.3934C47.7434 18.3634 47.7584 18.3334 47.7584 18.3034C47.8184 18.0634 47.8934 17.8234 47.9834 17.6134L47.6534 16.9534L44.2484 20.3584L50.9384 23.8384C50.3534 23.3134 49.2584 22.3534 48.9584 21.9484Z" fill="url(#paint35_linear_4518_115154)"/>
<path d="M51.3735 8.02841L51.2535 7.66841C51.3885 8.17841 51.4935 8.68842 51.5535 9.21342C51.6135 9.73842 51.6434 10.2634 51.6434 10.7884C51.6884 9.99342 51.6134 9.19841 51.4634 8.40341C51.4484 8.26841 51.4035 8.14841 51.3735 8.02841Z" fill="url(#paint36_linear_4518_115154)"/>
<defs>
<linearGradient id="paint0_linear_4518_115154" x1="37.6938" y1="3.64939" x2="62.4217" y2="165.314" gradientUnits="userSpaceOnUse">
<stop stop-color="#FFF33B"/>
<stop offset="0.053592" stop-color="#FDE23B"/>
<stop offset="0.2252" stop-color="#F7B03B"/>
<stop offset="0.3951" stop-color="#F2873A"/>
<stop offset="0.5602" stop-color="#EE673A"/>
<stop offset="0.7189" stop-color="#EB503A"/>
<stop offset="0.8686" stop-color="#EA433A"/>
<stop offset="1" stop-color="#E93E3A"/>
</linearGradient>
<linearGradient id="paint1_linear_4518_115154" x1="32.499" y1="-3.38981" x2="53.6779" y2="205.055" gradientUnits="userSpaceOnUse">
<stop stop-color="#FFF33B"/>
<stop offset="0.053592" stop-color="#FDE23B"/>
<stop offset="0.2252" stop-color="#F7B03B"/>
<stop offset="0.3951" stop-color="#F2873A"/>
<stop offset="0.5602" stop-color="#EE673A"/>
<stop offset="0.7189" stop-color="#EB503A"/>
<stop offset="0.8686" stop-color="#EA433A"/>
<stop offset="1" stop-color="#E93E3A"/>
</linearGradient>
<linearGradient id="paint2_linear_4518_115154" x1="-93.8626" y1="-178.704" x2="50.7333" y2="1561.07" gradientUnits="userSpaceOnUse">
<stop stop-color="#FFF33B"/>
<stop offset="0.053592" stop-color="#FDE23B"/>
<stop offset="0.2252" stop-color="#F7B03B"/>
<stop offset="0.3951" stop-color="#F2873A"/>
<stop offset="0.5602" stop-color="#EE673A"/>
<stop offset="0.7189" stop-color="#EB503A"/>
<stop offset="0.8686" stop-color="#EA433A"/>
<stop offset="1" stop-color="#E93E3A"/>
</linearGradient>
<linearGradient id="paint3_linear_4518_115154" x1="-514.951" y1="-1120.66" x2="627.455" y2="8672.91" gradientUnits="userSpaceOnUse">
<stop stop-color="#FFF33B"/>
<stop offset="0.053592" stop-color="#FDE23B"/>
<stop offset="0.2252" stop-color="#F7B03B"/>
<stop offset="0.3951" stop-color="#F2873A"/>
<stop offset="0.5602" stop-color="#EE673A"/>
<stop offset="0.7189" stop-color="#EB503A"/>
<stop offset="0.8686" stop-color="#EA433A"/>
<stop offset="1" stop-color="#E93E3A"/>
</linearGradient>
<linearGradient id="paint4_linear_4518_115154" x1="-471.333" y1="-204.77" x2="-434.879" y2="1283.36" gradientUnits="userSpaceOnUse">
<stop stop-color="#FFF33B"/>
<stop offset="0.053592" stop-color="#FDE23B"/>
<stop offset="0.2252" stop-color="#F7B03B"/>
<stop offset="0.3951" stop-color="#F2873A"/>
<stop offset="0.5602" stop-color="#EE673A"/>
<stop offset="0.7189" stop-color="#EB503A"/>
<stop offset="0.8686" stop-color="#EA433A"/>
<stop offset="1" stop-color="#E93E3A"/>
</linearGradient>
<linearGradient id="paint5_linear_4518_115154" x1="-205.757" y1="-2656.05" x2="13224.3" y2="18664.8" gradientUnits="userSpaceOnUse">
<stop stop-color="#FFF33B"/>
<stop offset="0.053592" stop-color="#FDE23B"/>
<stop offset="0.2252" stop-color="#F7B03B"/>
<stop offset="0.3951" stop-color="#F2873A"/>
<stop offset="0.5602" stop-color="#EE673A"/>
<stop offset="0.7189" stop-color="#EB503A"/>
<stop offset="0.8686" stop-color="#EA433A"/>
<stop offset="1" stop-color="#E93E3A"/>
</linearGradient>
<linearGradient id="paint6_linear_4518_115154" x1="-373.574" y1="-1508.45" x2="2620.88" y2="12753" gradientUnits="userSpaceOnUse">
<stop stop-color="#FFF33B"/>
<stop offset="0.053592" stop-color="#FDE23B"/>
<stop offset="0.2252" stop-color="#F7B03B"/>
<stop offset="0.3951" stop-color="#F2873A"/>
<stop offset="0.5602" stop-color="#EE673A"/>
<stop offset="0.7189" stop-color="#EB503A"/>
<stop offset="0.8686" stop-color="#EA433A"/>
<stop offset="1" stop-color="#E93E3A"/>
</linearGradient>
<linearGradient id="paint7_linear_4518_115154" x1="33.1387" y1="-72.8938" x2="633.431" y2="881.266" gradientUnits="userSpaceOnUse">
<stop stop-color="#FFF33B"/>
<stop offset="0.053592" stop-color="#FDE23B"/>
<stop offset="0.2252" stop-color="#F7B03B"/>
<stop offset="0.3951" stop-color="#F2873A"/>
<stop offset="0.5602" stop-color="#EE673A"/>
<stop offset="0.7189" stop-color="#EB503A"/>
<stop offset="0.8686" stop-color="#EA433A"/>
<stop offset="1" stop-color="#E93E3A"/>
</linearGradient>
<linearGradient id="paint8_linear_4518_115154" x1="-658.731" y1="-1112.32" x2="259.632" y2="8728.8" gradientUnits="userSpaceOnUse">
<stop stop-color="#FFF33B"/>
<stop offset="0.053592" stop-color="#FDE23B"/>
<stop offset="0.2252" stop-color="#F7B03B"/>
<stop offset="0.3951" stop-color="#F2873A"/>
<stop offset="0.5602" stop-color="#EE673A"/>
<stop offset="0.7189" stop-color="#EB503A"/>
<stop offset="0.8686" stop-color="#EA433A"/>
<stop offset="1" stop-color="#E93E3A"/>
</linearGradient>
<linearGradient id="paint9_linear_4518_115154" x1="-849.753" y1="-512.259" x2="-676.273" y2="4445.08" gradientUnits="userSpaceOnUse">
<stop stop-color="#FFF33B"/>
<stop offset="0.053592" stop-color="#FDE23B"/>
<stop offset="0.2252" stop-color="#F7B03B"/>
<stop offset="0.3951" stop-color="#F2873A"/>
<stop offset="0.5602" stop-color="#EE673A"/>
<stop offset="0.7189" stop-color="#EB503A"/>
<stop offset="0.8686" stop-color="#EA433A"/>
<stop offset="1" stop-color="#E93E3A"/>
</linearGradient>
<linearGradient id="paint10_linear_4518_115154" x1="-28.843" y1="-500.14" x2="2383.95" y2="5174.58" gradientUnits="userSpaceOnUse">
<stop stop-color="#FFF33B"/>
<stop offset="0.053592" stop-color="#FDE23B"/>
<stop offset="0.2252" stop-color="#F7B03B"/>
<stop offset="0.3951" stop-color="#F2873A"/>
<stop offset="0.5602" stop-color="#EE673A"/>
<stop offset="0.7189" stop-color="#EB503A"/>
<stop offset="0.8686" stop-color="#EA433A"/>
<stop offset="1" stop-color="#E93E3A"/>
</linearGradient>
<linearGradient id="paint11_linear_4518_115154" x1="29.1323" y1="101.197" x2="33.1331" y2="-3.38281" gradientUnits="userSpaceOnUse">
<stop stop-color="#662D91"/>
<stop offset="0.0940942" stop-color="#7C2D8D"/>
<stop offset="0.2912" stop-color="#A52C87"/>
<stop offset="0.4845" stop-color="#C52B82"/>
<stop offset="0.6705" stop-color="#DC2A7E"/>
<stop offset="0.846" stop-color="#E92A7C"/>
<stop offset="1" stop-color="#EE2A7B"/>
</linearGradient>
<linearGradient id="paint12_linear_4518_115154" x1="21.5033" y1="282.904" x2="42.5389" y2="-19.0127" gradientUnits="userSpaceOnUse">
<stop stop-color="#662D91"/>
<stop offset="0.0940942" stop-color="#7C2D8D"/>
<stop offset="0.2912" stop-color="#A52C87"/>
<stop offset="0.4845" stop-color="#C52B82"/>
<stop offset="0.6705" stop-color="#DC2A7E"/>
<stop offset="0.846" stop-color="#E92A7C"/>
<stop offset="1" stop-color="#EE2A7B"/>
</linearGradient>
<linearGradient id="paint13_linear_4518_115154" x1="-129.627" y1="5148.55" x2="708.54" y2="-408.562" gradientUnits="userSpaceOnUse">
<stop stop-color="#662D91"/>
<stop offset="0.0940942" stop-color="#7C2D8D"/>
<stop offset="0.2912" stop-color="#A52C87"/>
<stop offset="0.4845" stop-color="#C52B82"/>
<stop offset="0.6705" stop-color="#DC2A7E"/>
<stop offset="0.846" stop-color="#E92A7C"/>
<stop offset="1" stop-color="#EE2A7B"/>
</linearGradient>
<linearGradient id="paint14_linear_4518_115154" x1="-872.319" y1="26193.8" x2="3232.88" y2="-2141.54" gradientUnits="userSpaceOnUse">
<stop stop-color="#662D91"/>
<stop offset="0.0940942" stop-color="#7C2D8D"/>
<stop offset="0.2912" stop-color="#A52C87"/>
<stop offset="0.4845" stop-color="#C52B82"/>
<stop offset="0.6705" stop-color="#DC2A7E"/>
<stop offset="0.846" stop-color="#E92A7C"/>
<stop offset="1" stop-color="#EE2A7B"/>
</linearGradient>
<linearGradient id="paint15_linear_4518_115154" x1="-287.653" y1="2493.65" x2="-167.407" y2="-653.069" gradientUnits="userSpaceOnUse">
<stop stop-color="#662D91"/>
<stop offset="0.0940942" stop-color="#7C2D8D"/>
<stop offset="0.2912" stop-color="#A52C87"/>
<stop offset="0.4845" stop-color="#C52B82"/>
<stop offset="0.6705" stop-color="#DC2A7E"/>
<stop offset="0.846" stop-color="#E92A7C"/>
<stop offset="1" stop-color="#EE2A7B"/>
</linearGradient>
<linearGradient id="paint16_linear_4518_115154" x1="-743.636" y1="8532.46" x2="-213.016" y2="-1081.63" gradientUnits="userSpaceOnUse">
<stop stop-color="#662D91"/>
<stop offset="0.0940942" stop-color="#7C2D8D"/>
<stop offset="0.2912" stop-color="#A52C87"/>
<stop offset="0.4845" stop-color="#C52B82"/>
<stop offset="0.6705" stop-color="#DC2A7E"/>
<stop offset="0.846" stop-color="#E92A7C"/>
<stop offset="1" stop-color="#EE2A7B"/>
</linearGradient>
<linearGradient id="paint17_linear_4518_115154" x1="-180.449" y1="3376.53" x2="135.397" y2="-732.06" gradientUnits="userSpaceOnUse">
<stop stop-color="#662D91"/>
<stop offset="0.0940942" stop-color="#7C2D8D"/>
<stop offset="0.2912" stop-color="#A52C87"/>
<stop offset="0.4845" stop-color="#C52B82"/>
<stop offset="0.6705" stop-color="#DC2A7E"/>
<stop offset="0.846" stop-color="#E92A7C"/>
<stop offset="1" stop-color="#EE2A7B"/>
</linearGradient>
<linearGradient id="paint18_linear_4518_115154" x1="-601.25" y1="2990.61" x2="-517.094" y2="-623.691" gradientUnits="userSpaceOnUse">
<stop stop-color="#662D91"/>
<stop offset="0.0940942" stop-color="#7C2D8D"/>
<stop offset="0.2912" stop-color="#A52C87"/>
<stop offset="0.4845" stop-color="#C52B82"/>
<stop offset="0.6705" stop-color="#DC2A7E"/>
<stop offset="0.846" stop-color="#E92A7C"/>
<stop offset="1" stop-color="#EE2A7B"/>
</linearGradient>
<linearGradient id="paint19_linear_4518_115154" x1="10.7054" y1="111.69" x2="12.9962" y2="-24.7343" gradientUnits="userSpaceOnUse">
<stop stop-color="#662D91"/>
<stop offset="0.0940942" stop-color="#7C2D8D"/>
<stop offset="0.2912" stop-color="#A52C87"/>
<stop offset="0.4845" stop-color="#C52B82"/>
<stop offset="0.6705" stop-color="#DC2A7E"/>
<stop offset="0.846" stop-color="#E92A7C"/>
<stop offset="1" stop-color="#EE2A7B"/>
</linearGradient>
<linearGradient id="paint20_linear_4518_115154" x1="42.0532" y1="1529.66" x2="42.0532" y2="-32620.9" gradientUnits="userSpaceOnUse">
<stop stop-color="#00AEEF"/>
<stop offset="0.0150842" stop-color="#01ABEC"/>
<stop offset="0.2295" stop-color="#1082CB"/>
<stop offset="0.4396" stop-color="#1C62B2"/>
<stop offset="0.6418" stop-color="#244B9F"/>
<stop offset="0.8325" stop-color="#293E94"/>
<stop offset="1" stop-color="#2B3990"/>
</linearGradient>
<linearGradient id="paint21_linear_4518_115154" x1="-283.628" y1="618.808" x2="-275.381" y2="-257.785" gradientUnits="userSpaceOnUse">
<stop stop-color="#662D91"/>
<stop offset="0.0940942" stop-color="#7C2D8D"/>
<stop offset="0.2912" stop-color="#A52C87"/>
<stop offset="0.4845" stop-color="#C52B82"/>
<stop offset="0.6705" stop-color="#DC2A7E"/>
<stop offset="0.846" stop-color="#E92A7C"/>
<stop offset="1" stop-color="#EE2A7B"/>
</linearGradient>
<linearGradient id="paint22_linear_4518_115154" x1="37.4633" y1="20.1251" x2="37.7081" y2="-1.44295" gradientUnits="userSpaceOnUse">
<stop stop-color="#662D91"/>
<stop offset="0.0940942" stop-color="#7C2D8D"/>
<stop offset="0.2912" stop-color="#A52C87"/>
<stop offset="0.4845" stop-color="#C52B82"/>
<stop offset="0.6705" stop-color="#DC2A7E"/>
<stop offset="0.846" stop-color="#E92A7C"/>
<stop offset="1" stop-color="#EE2A7B"/>
</linearGradient>
<linearGradient id="paint23_linear_4518_115154" x1="-848.441" y1="18222.4" x2="1225.48" y2="-2021.8" gradientUnits="userSpaceOnUse">
<stop stop-color="#662D91"/>
<stop offset="0.0940942" stop-color="#7C2D8D"/>
<stop offset="0.2912" stop-color="#A52C87"/>
<stop offset="0.4845" stop-color="#C52B82"/>
<stop offset="0.6705" stop-color="#DC2A7E"/>
<stop offset="0.846" stop-color="#E92A7C"/>
<stop offset="1" stop-color="#EE2A7B"/>
</linearGradient>
<linearGradient id="paint24_linear_4518_115154" x1="-657.74" y1="8644.25" x2="-61.2733" y2="-962.088" gradientUnits="userSpaceOnUse">
<stop stop-color="#662D91"/>
<stop offset="0.0940942" stop-color="#7C2D8D"/>
<stop offset="0.2912" stop-color="#A52C87"/>
<stop offset="0.4845" stop-color="#C52B82"/>
<stop offset="0.6705" stop-color="#DC2A7E"/>
<stop offset="0.846" stop-color="#E92A7C"/>
<stop offset="1" stop-color="#EE2A7B"/>
</linearGradient>
<linearGradient id="paint25_linear_4518_115154" x1="-900.989" y1="117.152" x2="-212.965" y2="-19.842" gradientUnits="userSpaceOnUse">
<stop stop-color="#006838"/>
<stop offset="0.1509" stop-color="#056B38"/>
<stop offset="0.3229" stop-color="#127439"/>
<stop offset="0.5051" stop-color="#29843A"/>
<stop offset="0.6947" stop-color="#49993C"/>
<stop offset="0.8878" stop-color="#72B43E"/>
<stop offset="1" stop-color="#8DC63F"/>
</linearGradient>
<linearGradient id="paint26_linear_4518_115154" x1="-85.6243" y1="19.7113" x2="-4.21773" y2="-9.84922" gradientUnits="userSpaceOnUse">
<stop stop-color="#006838"/>
<stop offset="0.1509" stop-color="#056B38"/>
<stop offset="0.3229" stop-color="#127439"/>
<stop offset="0.5051" stop-color="#29843A"/>
<stop offset="0.6947" stop-color="#49993C"/>
<stop offset="0.8878" stop-color="#72B43E"/>
<stop offset="1" stop-color="#8DC63F"/>
</linearGradient>
<linearGradient id="paint27_linear_4518_115154" x1="4.09998" y1="18.4454" x2="50.8167" y2="11.9418" gradientUnits="userSpaceOnUse">
<stop stop-color="#006838"/>
<stop offset="0.1509" stop-color="#056B38"/>
<stop offset="0.3229" stop-color="#127439"/>
<stop offset="0.5051" stop-color="#29843A"/>
<stop offset="0.6947" stop-color="#49993C"/>
<stop offset="0.8878" stop-color="#72B43E"/>
<stop offset="1" stop-color="#8DC63F"/>
</linearGradient>
<linearGradient id="paint28_linear_4518_115154" x1="-6.9431" y1="22.6939" x2="62.5565" y2="17.2627" gradientUnits="userSpaceOnUse">
<stop stop-color="#006838"/>
<stop offset="0.1509" stop-color="#056B38"/>
<stop offset="0.3229" stop-color="#127439"/>
<stop offset="0.5051" stop-color="#29843A"/>
<stop offset="0.6947" stop-color="#49993C"/>
<stop offset="0.8878" stop-color="#72B43E"/>
<stop offset="1" stop-color="#8DC63F"/>
</linearGradient>
<linearGradient id="paint29_linear_4518_115154" x1="11.2618" y1="15.914" x2="76.6861" y2="6.56023" gradientUnits="userSpaceOnUse">
<stop stop-color="#006838"/>
<stop offset="0.1509" stop-color="#056B38"/>
<stop offset="0.3229" stop-color="#127439"/>
<stop offset="0.5051" stop-color="#29843A"/>
<stop offset="0.6947" stop-color="#49993C"/>
<stop offset="0.8878" stop-color="#72B43E"/>
<stop offset="1" stop-color="#8DC63F"/>
</linearGradient>
<linearGradient id="paint30_linear_4518_115154" x1="-888.754" y1="111.482" x2="1664.64" y2="-426.439" gradientUnits="userSpaceOnUse">
<stop stop-color="#006838"/>
<stop offset="0.1509" stop-color="#056B38"/>
<stop offset="0.3229" stop-color="#127439"/>
<stop offset="0.5051" stop-color="#29843A"/>
<stop offset="0.6947" stop-color="#49993C"/>
<stop offset="0.8878" stop-color="#72B43E"/>
<stop offset="1" stop-color="#8DC63F"/>
</linearGradient>
<linearGradient id="paint31_linear_4518_115154" x1="41.2324" y1="35.7136" x2="41.2324" y2="-316.354" gradientUnits="userSpaceOnUse">
<stop stop-color="#00AEEF"/>
<stop offset="0.0150842" stop-color="#01ABEC"/>
<stop offset="0.2295" stop-color="#1082CB"/>
<stop offset="0.4396" stop-color="#1C62B2"/>
<stop offset="0.6418" stop-color="#244B9F"/>
<stop offset="0.8325" stop-color="#293E94"/>
<stop offset="1" stop-color="#2B3990"/>
</linearGradient>
<linearGradient id="paint32_linear_4518_115154" x1="53.5902" y1="25.487" x2="52.5599" y2="-0.992695" gradientUnits="userSpaceOnUse">
<stop stop-color="#00AEEF"/>
<stop offset="0.0150842" stop-color="#01ABEC"/>
<stop offset="0.2295" stop-color="#1082CB"/>
<stop offset="0.4396" stop-color="#1C62B2"/>
<stop offset="0.6418" stop-color="#244B9F"/>
<stop offset="0.8325" stop-color="#293E94"/>
<stop offset="1" stop-color="#2B3990"/>
</linearGradient>
<linearGradient id="paint33_linear_4518_115154" x1="33.0187" y1="-0.700198" x2="34.3359" y2="21.4725" gradientUnits="userSpaceOnUse">
<stop stop-color="#FFF33B"/>
<stop offset="0.053592" stop-color="#FDE23B"/>
<stop offset="0.2252" stop-color="#F7B03B"/>
<stop offset="0.3951" stop-color="#F2873A"/>
<stop offset="0.5602" stop-color="#EE673A"/>
<stop offset="0.7189" stop-color="#EB503A"/>
<stop offset="0.8686" stop-color="#EA433A"/>
<stop offset="1" stop-color="#E93E3A"/>
</linearGradient>
<linearGradient id="paint34_linear_4518_115154" x1="-37.3318" y1="-192.827" x2="-8.6868" y2="-2.49464" gradientUnits="userSpaceOnUse">
<stop stop-color="#FFF33B"/>
<stop offset="0.053592" stop-color="#FDE23B"/>
<stop offset="0.2252" stop-color="#F7B03B"/>
<stop offset="0.3951" stop-color="#F2873A"/>
<stop offset="0.5602" stop-color="#EE673A"/>
<stop offset="0.7189" stop-color="#EB503A"/>
<stop offset="0.8686" stop-color="#EA433A"/>
<stop offset="1" stop-color="#E93E3A"/>
</linearGradient>
<linearGradient id="paint35_linear_4518_115154" x1="45.8299" y1="30.0822" x2="44.9852" y2="3.2283" gradientUnits="userSpaceOnUse">
<stop stop-color="#FFF33B"/>
<stop offset="0.0438805" stop-color="#FDE23B"/>
<stop offset="0.1844" stop-color="#F7B03B"/>
<stop offset="0.3235" stop-color="#F2873A"/>
<stop offset="0.4587" stop-color="#EE673A"/>
<stop offset="0.5886" stop-color="#EB503A"/>
<stop offset="0.7112" stop-color="#EA433A"/>
<stop offset="0.8188" stop-color="#E93E3A"/>
</linearGradient>
<linearGradient id="paint36_linear_4518_115154" x1="51.462" y1="21.4992" x2="51.462" y2="0.0508351" gradientUnits="userSpaceOnUse">
<stop stop-color="#00AEEF"/>
<stop offset="0.0150842" stop-color="#01ABEC"/>
<stop offset="0.2295" stop-color="#1082CB"/>
<stop offset="0.4396" stop-color="#1C62B2"/>
<stop offset="0.6418" stop-color="#244B9F"/>
<stop offset="0.8325" stop-color="#293E94"/>
<stop offset="1" stop-color="#2B3990"/>
</linearGradient>
</defs>
</svg>
